        <svg
            width="814"
            height="800"
            viewBox="0 0 814 800"
            fill="none"
            xmlns="http://www.w3.org/2000/svg"
        >
            <path
                fillRule="evenodd"
                clipRule="evenodd"
                d="M190.016 182.215V429.282C190.016 559.373 295.484 624.058 406.638 711.428C517.883 624.058 623.333 559.373 623.333 429.284V182.216H190.014"
                fill="#00558F"
            />
            <path
                d="M156.91 712.182L147.356 704.499L185.938 656.662L195.492 664.488L156.91 712.182ZM145.873 682.502L138.022 674.55L142.345 670.186L142.225 670.084C135.96 671.142 131.038 668.972 126.652 664.626C119.124 656.996 121.185 648.296 128.402 641.116L148.648 620.876L156.988 629.319L139.804 646.378C135.918 650.306 130.638 655.627 135.984 661.008C142.005 667.088 149.849 661.863 153.933 657.774L169.644 642.083L177.924 650.519L145.87 682.5M111.052 632.332L116.402 639.203L109.623 644.548L104.265 637.678L99.3145 641.547C92.1519 647.191 84.0266 647.03 78.2986 639.646C76.5629 637.349 75.0537 634.89 73.7919 632.303L82.0772 627.03C82.2212 628.202 82.3706 629.954 83.9439 632.046C86.3879 635.078 89.8372 633.966 92.6305 631.819L97.0439 628.339L90.7172 620.226L97.5092 614.896L103.823 623.064L132.702 600.422L139.942 609.762L111.052 632.331M97.7839 592.047C92.0026 595.563 84.3732 595.874 80.4399 589.309C76.4639 582.63 80.0986 576.054 86.0532 572.478C92.5706 568.591 100.684 566.427 105.365 574.206C109.993 581.937 104.193 588.215 97.7839 592.047ZM105.365 601.918C116.474 595.198 120.874 582.319 113.216 569.506C105.461 556.545 92.0799 554.434 80.9479 561.173C68.1533 568.909 65.6946 582.409 72.6066 593.99C79.5132 605.494 92.5705 609.643 105.367 601.918M56.1413 561.483L51.8666 551.91L61.2466 547.725L61.1519 547.558C57.116 548.747 48.632 547.282 45.768 540.807C45.3253 539.779 44.7987 538.631 44.6493 537.351L55.448 532.485C55.292 533.681 55.8893 535.821 56.7213 537.734C60.6133 546.506 71.5546 541.609 77.4852 538.925L92.6545 532.138L97.4252 542.93L56.1413 561.483ZM40.1587 526.71L37.2787 516.043L43.3694 514.417L43.34 514.225C37.0334 512.097 33.852 507.373 32.704 503.158C31.0707 497.03 32.1307 491.995 36.9307 488.049C30.952 486.854 26.964 481.867 25.4934 476.486C22.5867 465.664 29.0987 460.6 38.8734 457.976L66.4373 450.442L69.5279 461.897L43.5014 468.941C39.3947 470.101 33.6547 471.625 35.436 478.221C37.4627 485.759 46.712 484.253 52.392 482.71L73.6119 476.97L76.6613 488.378L50.616 495.451C46.5213 496.539 40.7814 498.118 42.5987 504.647C44.62 512.251 53.8387 510.679 59.5253 509.131L80.7439 503.379L83.8106 514.817L40.1587 526.71ZM52.428 434.633C45.516 435.261 43.956 427.525 43.5014 422.252L43.0347 417.128C46.5213 416.834 49.8147 417.074 52.536 418.717C55.1493 420.416 56.9493 423.088 57.2826 426.664C57.6533 430.854 56.2666 434.25 52.4293 434.633M33.3494 442.37C30.0187 438.693 27.6507 433.874 27.216 428.804C26.5814 421.934 28.7694 418.425 36.016 417.766L36.596 424.302C37.08 429.205 38.0253 434.962 40.5893 439.22C43.1667 443.542 47.4 446.382 54.132 445.784C62.712 445.03 66.8199 436.75 66.0893 428.774C65.6359 423.412 62.2986 417.766 57.092 415.566L57.068 415.345C58.468 415.106 61.4626 414.868 63.764 414.209L62.8253 403.849C59.3453 404.446 56.2253 404.846 52.7987 405.236C49.4747 405.672 46.0787 406.066 41.5453 406.473L35.7467 407.005C22.4734 408.152 17.2841 414.389 18.4921 428.194C18.9881 433.193 20.8294 439.22 23.3347 443.661L33.3494 442.37ZM26.4614 390.288L26.2707 399.022L17.7028 398.868L17.8694 390.15L8.81211 389.91L5.3201 378.006L18.1387 378.313L18.3721 367.746L26.9987 367.992L26.7854 378.509L47.8 378.962C51.7467 379.065 55.2933 378.109 55.448 373.601C55.448 371.514 55.088 369.457 54.3053 368.232L63.6093 368.064C64.3266 370.545 64.5653 373.265 64.4813 376.757C64.3266 386.037 58.468 391.053 49.4746 390.856L26.4614 390.288ZM19.3827 357.553L20.5907 345.745L65.6119 350.42L64.4213 362.145L19.3827 357.553ZM-0.0012207 355.502L1.19478 343.742L12.3574 344.913L11.1854 356.656L-0.0012207 355.502ZM45.1574 325.798C38.5867 324.383 32.7867 319.396 34.3707 311.887C35.9747 304.269 43.1187 301.997 49.8747 303.487C57.2826 305.033 64.7093 309.087 62.856 317.943C60.96 326.761 52.5 327.396 45.1574 325.798ZM43.956 338.234C56.7213 340.901 68.6733 334.534 71.7933 319.909C74.8853 305.093 66.604 294.428 53.8386 291.736C39.2747 288.575 28.2614 296.771 25.4627 309.979C22.6654 323.067 29.3854 335.043 43.956 338.234ZM35.3773 274.224L39.2747 263.731L45.08 265.901L45.0933 265.752C41.572 260.432 41.4534 254.96 43.5867 249.239C47.3773 239.181 56.04 237.425 65.6133 241.017L92.2972 251.128L88.2199 262.159L65.5773 253.652C60.3759 251.672 53.368 249.161 50.708 256.257C47.724 264.271 55.7 269.263 61.1413 271.253L81.8573 279.121L77.7026 290.183L35.3773 274.224ZM100.547 207.93C94.7225 204.217 98.1425 197.089 101.007 192.617L103.716 188.324C106.693 190.203 109.132 192.408 110.268 195.399C111.308 198.297 111.17 201.556 109.216 204.593C106.962 208.133 103.811 210.028 100.547 207.93ZM80.7439 202.34C80.3012 197.401 81.4146 192.109 84.1226 187.876C87.8359 181.982 91.6266 180.583 97.7839 184.456L94.3226 189.993C91.6799 194.215 88.9226 199.332 88.3626 204.3C87.7999 209.317 89.3959 214.167 95.0879 217.82C102.328 222.405 110.651 218.471 114.932 211.667C117.813 207.159 118.597 200.641 115.841 195.613L115.912 195.493C117.198 196.2 119.68 197.76 121.933 198.668L127.536 189.915C124.373 188.259 121.64 186.639 118.681 184.894C115.43 182.98 112.215 181.007 109.037 178.974L104.181 175.8C92.8932 168.607 84.9946 170.316 77.5946 182.005C74.8852 186.31 72.7506 192.182 72.0213 197.192L80.7439 202.339M98.0359 153.611L105.283 145.098L109.933 149.115L110.077 149.002C108.534 142.802 110.268 137.678 114.268 133.02C121.222 124.847 129.981 126.216 137.724 132.823L159.433 151.49L151.756 160.523L133.436 144.679C129.197 141.086 123.458 136.26 118.561 142C113.006 148.523 118.812 155.967 123.225 159.764L140.008 174.227L132.368 183.166L98.0345 153.611M158.213 121.331C154.213 116.758 150.362 109.075 156.102 104.051C161.813 99.0644 169.369 103.215 173.489 108.028C177.765 112.847 181.268 120.788 175.325 125.947C169.454 131.035 162.273 126.096 158.213 121.331ZM188.773 124.967L197.429 117.456L154.208 67.4604L145.341 75.2631L162.274 94.9164L162.154 95.0124C156.713 94.0737 152.222 95.2511 147.804 99.1431C137.329 108.274 140.766 119.998 148.916 129.444C157.072 138.862 168.401 144.152 178.894 135.004C183.032 131.351 185.568 126.884 185.316 121.194L185.436 121.092L188.773 124.967ZM263.593 76.0178C260.202 79.0965 256.363 82.1644 252.322 84.4884C234.953 94.0737 218.062 91.9391 208.096 73.7512C198.021 55.2045 203.558 38.6418 221.853 28.6273C225.422 26.6432 230.493 24.7353 235.234 24.1606L239.455 33.7099C234.109 33.6499 230.122 35.1033 226.266 37.2859C215.181 43.3832 212.885 55.6819 218.906 66.8032C224.861 77.7444 236.185 82.2831 247.689 75.9512C251.921 73.6552 256.411 69.9418 258.241 67.2338L263.593 76.0164M269.59 49.2485C267.27 42.9472 268.447 35.3845 275.574 32.7112C282.845 30.0206 288.547 34.8872 290.958 41.3632C293.546 48.4965 294.109 56.9632 285.637 60.0472C277.23 63.1858 272.191 56.3339 269.59 49.2485ZM258.546 54.9232C263.037 67.1139 274.767 73.8885 288.787 68.6805C302.891 63.5205 307.459 50.6899 302.951 38.4152C297.779 24.3766 285.05 19.4326 272.435 24.1019C259.897 28.7059 253.345 40.7819 258.546 54.9232ZM308.499 12.3593L319.334 10.4993L320.362 16.7419L320.554 16.7179C323.226 10.6193 328.213 7.92865 332.559 7.15131C338.795 6.03931 343.585 7.63531 347.053 12.802C348.834 6.97266 354.215 3.42596 359.679 2.48193C370.645 0.568604 375.106 7.62329 376.743 17.6086L381.58 45.8232L369.994 47.8685L365.421 21.2206C364.738 16.994 363.715 11.0313 357.031 12.2273C349.349 13.5366 349.946 22.942 350.969 28.7473L354.627 50.5045L343.058 52.4605L338.502 25.83C337.779 21.614 336.769 15.6833 330.102 16.8553C322.413 18.2059 323.011 27.5633 324.033 33.3993L327.71 55.1205L316.147 57.1179L308.499 12.3593ZM391.607 0.000671387L402.567 0.47937L402.31 6.8233H402.43C406.44 1.40601 411.822 -0.190002 416.27 0.0366211C422.554 0.329956 426.895 2.9007 429.179 8.59796C432.156 3.30731 438.178 1.02863 443.695 1.24463C454.847 1.7113 457.675 9.57263 457.202 19.6713L455.988 48.3285L444.175 47.8086L445.399 20.754C445.62 16.5327 445.818 10.53 439.086 10.2419C431.283 9.87128 429.896 19.1993 429.646 25.0406L428.683 47.1205L416.904 46.5939L418.1 19.522C418.279 15.3193 418.554 9.33392 411.78 9.0473C403.978 8.66998 402.607 18.0032 402.31 23.8806L401.39 45.8713L389.61 45.3872L391.607 0.000671387ZM504.776 59.8445L493.912 57.4166L495.276 51.3539L495.127 51.2872C490.607 54.8458 485.04 56.4658 479.06 55.0365C468.598 52.6565 465.727 44.2325 468 34.2059L474.434 6.27802L485.883 8.95135L480.443 32.5979C479.211 38.0272 477.692 45.3633 485.04 47.0379C493.363 48.9206 497.171 40.3232 498.475 34.6073L503.408 12.9687L514.904 15.606L504.776 59.8445ZM530.319 20.3953L540.679 24.5153L538.456 30.2846L538.616 30.3139C543.939 26.8099 549.337 26.7859 555.077 29.0286C565.032 32.9753 566.617 41.7219 562.873 51.2458L552.411 77.9245L541.475 73.6138L550.355 51.0072C552.351 45.8232 554.988 38.8166 547.963 36.0952C540.029 32.9393 534.983 40.8845 532.829 46.2899L524.728 66.9951L513.775 62.6539L530.319 20.3953ZM582.407 42.6658L592.828 48.1485L571.879 88.3938L561.445 82.9525L582.407 42.6658ZM591.429 25.358L601.892 30.8112L596.661 40.8433L586.216 35.3845L591.429 25.358ZM625.078 79.3245C623.759 77.3858 622.263 75.5512 619.261 73.5898C613.103 69.6739 605.995 72.0045 601.468 79.2392C596.929 86.2952 596.78 93.8338 603.781 98.3191C606.592 100.172 610.395 101.092 612.528 101.458L607.733 109.983C604.267 109.027 601.091 107.466 596.989 104.866C584.512 96.8231 583.639 84.2391 591.069 72.6031C598.132 61.4938 610.245 56.9326 622.161 64.5739C626.148 67.1138 628.756 69.4165 630.98 72.0045L625.078 79.3245ZM626.746 108.794C631.218 103.436 637.791 107.687 641.82 111.1L645.796 114.318C643.553 117.056 641.007 119.244 637.945 119.998C634.992 120.739 631.812 120.178 629.055 117.858C625.779 115.131 624.289 111.752 626.748 108.794M634.711 89.7137C639.613 89.9297 644.737 91.6458 648.594 94.8391C653.951 99.2804 654.908 103.28 650.25 108.9L645.276 104.751C641.425 101.607 636.654 98.2231 631.81 97.1164C626.944 95.8671 621.964 96.9431 617.653 102.115C612.152 108.794 615.141 117.576 621.329 122.676C625.456 126.067 631.733 127.704 637.072 125.499L637.192 125.582C636.349 126.778 634.465 129.092 633.294 131.214L641.276 137.798C643.245 135.051 645.266 132.342 647.338 129.672C649.365 127.018 651.452 124.303 654.412 120.77L658.058 116.25C666.585 105.935 665.808 97.8937 655.165 89.0151C651.296 85.8578 645.7 82.9524 640.809 81.6484L634.711 89.7151M676.354 121.331L670.34 115.054L676.533 109.092L682.548 115.328L689.094 109.075L699.929 114.886L690.752 123.866L697.998 131.423L691.816 137.396L684.533 129.911L669.406 144.542C666.585 147.232 664.718 150.52 667.833 153.755C669.293 155.303 671.05 156.446 672.444 156.744L666.028 163.495C663.762 162.258 661.641 160.554 659.218 157.97C652.792 151.292 653.401 143.632 659.822 137.396L676.354 121.331ZM704.576 139.34L712.048 148.47L677.065 177.318L669.562 168.224L704.576 139.34ZM719.606 126.934L727.092 136.058L718.452 143.231L710.889 134.079L719.606 126.934ZM708.825 180.015C714.5 176.295 722.129 175.698 726.296 182.09C730.541 188.648 727.122 195.32 721.328 199.111C715.038 203.26 707.002 205.724 702.009 198.155C697.048 190.669 702.644 184.134 708.825 180.015ZM700.928 170.436C690.076 177.618 686.225 190.699 694.374 203.2C702.644 215.768 716.03 217.4 726.954 210.232C739.414 201.982 741.274 188.379 733.961 177.126C726.613 165.916 713.412 162.258 700.928 170.436ZM752.329 209.281L757.016 219.445L751.359 221.968L751.485 222.165C757.745 223.361 761.685 227.045 764.257 232.719C768.746 242.428 763.808 249.848 754.606 254.141L728.64 266.171L723.72 255.451L745.68 245.239C750.654 242.949 757.417 239.72 754.26 232.868C750.654 225.065 741.566 227.248 736.269 229.729L716.186 239.032L711.248 228.331L752.329 209.281ZM773.889 290.344C774.009 286.565 773.889 283.815 772.579 279.725C771.634 276.681 769.393 273.352 765.673 274.529C758.875 276.7 769.333 294.905 753.763 299.875C743.67 303.073 736.861 295.341 733.961 286.117C732.622 281.841 731.994 277.273 731.814 272.765L741.249 270.541C740.634 274.648 740.634 278.648 741.908 282.565C742.755 285.399 745.304 289.62 749.477 288.275C757.954 285.621 746.026 267.845 761.626 262.912C770.9 259.959 777.554 266.805 780.333 275.624C781.983 280.975 782.229 284.681 782.563 288.455L773.889 290.344ZM808.59 327.628L809.745 339.904L774.517 343.329C764.107 344.321 757.637 348.345 758.517 357.697C759.401 367.096 766.588 369.75 776.938 368.769L812.183 365.361L813.397 377.654L774.354 381.402C758.033 383.012 750.404 374.354 748.878 358.617C747.39 342.964 753.225 332.961 769.59 331.365L808.59 327.628ZM797.29 396.386L796.614 407.52L790.491 407.142V407.28C795.382 411.34 797.11 416.44 796.705 422.658C795.998 433.378 788.178 437.593 778.067 436.929L749.494 435.106L750.29 423.346L774.373 424.853C779.855 425.157 787.401 425.612 787.861 418.048C788.358 409.486 779.269 407.041 773.501 406.712L751.42 405.236L752.149 393.486L797.29 396.386ZM792.159 452.953L790.103 464.593L745.561 456.869L747.569 445.252L792.159 452.953ZM811.334 456.253L809.326 467.948L798.259 465.987L800.286 454.364L811.334 456.253ZM788.789 474.585L785.429 486.799L750.656 488.879L750.582 489.042L779.419 508.378L776.244 519.822L737.172 491.439L740.693 478.633L788.789 474.585ZM752.365 530.302C757.709 533.25 760.585 538.111 758.014 544.143C755.39 550.237 749.823 550.721 744.43 548.747L752.365 530.302ZM727.552 550.141C727.061 545.137 727.092 539.743 729.357 534.451C732.233 527.702 738.033 524.701 744.926 527.105L732.593 555.929C747.044 562.182 759.521 562.398 766.122 546.947C771.735 533.955 764.544 523.319 752.549 518.075C738.888 512.174 727.552 516.826 721.65 530.578C719.109 536.383 718.338 541.423 718.841 546.333L727.552 550.141ZM750.546 577.255L745.364 586.362L736.394 581.261L736.334 581.399C739.725 583.939 743.516 591.725 740.001 597.859C739.444 598.833 738.87 599.915 737.884 600.819L727.612 594.863C728.682 594.29 730.052 592.597 731.068 590.815C735.85 582.409 725.542 576.437 719.893 573.195L705.466 564.902L711.342 554.709L750.546 577.255ZM708.449 625.087C711.576 622.862 713.698 621.116 716.209 617.636C718.022 615.036 719.318 611.251 716.186 609.01C710.314 604.788 702.1 624.178 688.826 614.623C680.264 608.464 682.304 598.301 687.869 590.541C690.494 586.846 693.83 583.587 697.226 580.741L704.7 586.947C701.036 588.933 697.854 591.39 695.517 594.642C693.77 597.105 691.924 601.661 695.517 604.215C702.728 609.398 709.698 589.189 722.972 598.762C730.888 604.399 729.436 613.87 724.072 621.41C720.818 625.858 718.021 628.339 715.229 630.886L708.449 625.087ZM707.002 641.906L699.349 650.903L664.964 621.29L672.588 612.339L707.002 641.906ZM721.789 654.635L714.122 663.608L705.602 656.243L713.25 647.286L721.789 654.635ZM680.874 658.168L687.116 651.962L693.137 658.114L686.997 664.267L693.334 670.747L687.654 681.76L678.681 672.65L671.212 679.979L665.113 673.856L672.521 666.491L657.688 651.466C654.98 648.727 651.673 646.892 648.516 650.096C646.985 651.579 645.88 653.266 645.556 654.718L638.764 648.38C639.996 646.174 641.682 643.896 644.176 641.468C650.716 634.922 658.34 635.4 664.617 641.756L680.874 658.168ZM627.823 673.247L627.733 673.288L639.596 706.184L630.221 713.534L615.704 667.668C612.469 657.415 608.481 647.944 618.149 640.284C620.344 638.515 622.837 637.128 625.456 636.106L630.221 643.412C628.732 643.896 627.285 644.751 624.953 646.551C621.288 649.57 621.007 653.858 623.997 657.671L667.038 684.351L656.874 692.422L627.823 673.247ZM288.154 722.55L297.565 725.946L278.258 779.313L267.605 775.403L282.557 734.292L270.874 738.256L268.047 729.383L288.154 722.55ZM359.094 768.665C353.749 768.025 352.129 762.649 352.827 757.161C353.462 752.103 356.278 747.356 361.503 747.996C367.063 748.707 368.678 753.693 368.021 758.973C367.32 764.659 364.607 769.376 359.094 768.665ZM339.645 793.771C343.23 795.628 347.117 796.83 351.125 797.321C369.335 799.641 376.338 783.54 378.262 768.223C379.99 755.063 378.102 741.592 362.579 739.589C349.869 738.029 342.915 745.275 341.379 757.501C340.039 767.905 344.99 775.403 355.573 776.683C360.338 777.381 363.967 776.091 367.123 772.539L367.255 772.688C365.886 781.029 361.414 789.621 351.746 788.419C347.913 787.905 345.031 786.541 342.221 784.849L339.645 793.769M442.136 770.195C436.706 770.692 434.003 765.783 433.507 760.283C433.054 755.224 434.782 749.932 439.995 749.484C445.603 748.94 448.24 753.448 448.736 758.769C449.256 764.413 447.606 769.663 442.136 770.196M428.443 798.943C432.393 799.915 436.477 800.22 440.527 799.845C458.768 798.207 462.164 780.916 460.712 765.628C459.51 752.336 454.876 739.588 439.266 741.024C426.506 742.256 421.244 750.848 422.404 763.104C423.331 773.531 429.735 779.804 440.378 778.787C445.155 778.399 448.46 776.389 450.787 772.12L450.96 772.293C451.396 780.76 448.898 790.147 439.175 791.049C435.384 791.349 432.198 790.667 429.108 789.621L428.443 798.941M497.399 732.242L532.047 721.007L534.983 729.999L530.319 781.172L518.581 784.987L523.921 733.06L500.143 740.719L497.399 732.242ZM228.537 722.55C228.537 728.271 223.857 732.964 218.146 732.964C212.413 732.964 207.773 728.271 207.773 722.55C207.773 716.732 212.413 712.05 218.146 712.05C223.856 712.05 228.537 716.732 228.537 722.55ZM593.199 722.55C593.199 728.271 588.589 732.964 582.801 732.964C577.116 732.964 572.452 728.271 572.452 722.55C572.452 716.732 577.116 712.05 582.801 712.05C588.588 712.05 593.199 716.732 593.199 722.55Z"
                fill="#808285"
            />
            <path
                fillRule="evenodd"
                clipRule="evenodd"
                d="M190.018 182.215V429.283C190.018 430.544 190.045 431.788 190.064 433.037H221.723C224.3 423.943 229.215 414.646 238.213 406.473C240.706 404.165 244.372 402.121 249.311 400.1C266.673 393.009 280.974 384.172 291.861 369.512C306.008 350.451 303.508 332.4 304.268 313.166C304.74 299.636 299.898 271.133 323.635 249.036C326.415 246.452 330.349 244.426 334.684 242.764C350.594 236.522 366.395 226.794 377.211 212.176C384.756 202.029 387.614 192.122 388.738 182.215H190.018ZM253.406 196.695C258.124 196.695 262.656 197.76 267.08 199.111L266.129 209.119C262.153 206.955 258.327 205.891 254.076 205.891C245.365 205.891 239.654 212.283 239.654 220.898C239.654 229.998 246.076 235.468 255.08 235.468C259.086 235.468 263.228 234.381 266.553 233.108L267.139 242.788C263.629 243.63 259.743 244.628 253.453 244.628C241.214 244.628 226.984 238.398 226.984 220.898C226.984 204.798 238.214 196.695 253.406 196.695ZM204.002 197.49H216.3V243.84H204.001L204.002 197.49ZM277.787 197.49H290.135V224.15C290.135 230.35 291.761 235.469 298.039 235.469C304.311 235.469 305.961 230.351 305.961 224.15V197.49H318.277V226.256C318.277 238.943 310.063 244.629 298.039 244.629C285.979 244.629 277.787 238.943 277.787 226.256V197.49Z"
                fill="#8FBBD0"
            />
            <path
                d="M287.699 488.761H302.742V486.374H297.139V473.15H272.286V475.494H291.555V486.374H267.054V488.761H282.127V494.561H272.106V496.843H291.771V510.163H297.295V494.559H287.699V488.761ZM370.883 491.995H380.23V474.542H374.537V480.479H361.414V474.543H355.715V491.995H365.062V498.614H350.55V500.934H385.449V498.614H370.885L370.883 491.995ZM361.414 483.039H374.538V489.634H361.414V483.039ZM447.211 478.219V474.543H441.687V478.219C441.687 478.219 441.543 487.769 433.55 491.995L435.475 494.715C441.395 494.065 444.527 487.195 444.527 487.195C444.527 487.195 447.607 494.166 453.5 494.715L455.384 492.21C447.068 487.326 447.211 478.219 447.211 478.219ZM459.6 473.114H464.664V498.734H459.6V473.114ZM447.127 497.537H441.807V510.166H464.664V507.803H447.127V497.537ZM499.587 482.267H496.52V473.15H491.874V493.413H480.592V476.862H488.632V474.542H475.211V495.75H491.874V510.147H496.52V484.845H499.587V510.147H504.244V473.15H499.587V482.267ZM588.721 500.234V497.878H575.872V485.838H570.616V497.878H567.364V485.838H562.103V497.878H554.988V500.234H588.721Z"
                fill="white"
            />
            <path
                d="M578.849 476.862V493.981H584.272V474.543H559.627V476.863L578.849 476.862ZM413.563 487.846H423.045V485.459H403.463V482.363H422.497V479.983H403.465V476.863H423.046V474.483H397.857V487.846H407.751V490.65H392.81V493.054H428.523V490.65H413.563V487.846ZM410.662 494.477C405.179 494.477 400.761 498.017 400.761 502.339C400.761 506.691 405.179 510.166 410.662 510.166C416.169 510.166 420.582 506.691 420.582 502.339C420.582 498.017 416.169 494.477 410.662 494.477ZM410.662 507.822C408.271 507.822 406.363 505.401 406.363 502.339C406.363 499.302 408.27 496.819 410.662 496.819C413.054 496.819 414.979 499.302 414.979 502.339C414.979 505.401 413.054 507.822 410.662 507.822ZM336.995 481.317H329.469V483.834H336.995V492.778H342.03V473.114H336.995V481.317Z"
                fill="white"
            />
            <path
                d="M324.177 477.418V476.862H331.459V474.483H311.483V476.862H318.665V477.418C318.665 477.418 318.521 485.365 310.551 488.922L312.41 491.105C318.157 491.105 321.517 484.886 321.517 484.886C321.517 484.886 324.727 491.105 330.49 491.105L332.333 489.042C324.057 485.006 324.177 477.418 324.177 477.418ZM330.646 494.441C325.169 494.441 320.673 497.993 320.673 502.321C320.673 506.614 325.169 510.147 330.646 510.147C336.123 510.147 340.566 506.614 340.566 502.321C340.566 497.993 336.123 494.441 330.646 494.441ZM330.646 507.803C328.273 507.803 326.377 505.346 326.377 502.321C326.377 499.302 328.273 496.79 330.646 496.79C333.038 496.79 334.957 499.302 334.957 502.321C334.957 505.347 333.037 507.803 330.646 507.803ZM255.742 473.114H250.756V500.079H255.742V486.046H260.968V483.517H255.741L255.742 473.114ZM237.554 497.735H232.52V510.149H255.742V507.803H237.554V497.735ZM243.037 480.479H247.629V478.034H238.749V473.114H233.74V478.034H224.646V480.479H243.037Z"
                fill="white"
            />
            <path
                d="M236.125 478.633C230.649 478.633 226.23 482.125 226.23 486.513C226.23 490.812 230.649 494.297 236.125 494.297C241.578 494.297 246.074 490.812 246.074 486.513C246.074 482.125 241.578 478.633 236.125 478.633ZM236.125 491.953C233.8 491.953 231.832 489.473 231.832 486.513C231.832 483.422 233.8 480.977 236.125 480.977C238.534 480.977 240.472 483.422 240.472 486.513C240.472 489.473 238.534 491.953 236.125 491.953ZM545.595 473.15H540.541V494.243H545.595V484.844H551.364V482.268H545.595V473.15ZM520.932 499.678H540.184V510.147H545.595V497.358H520.932V499.678ZM532.71 480.48H537.253V478.034H528.37V473.114H523.366V478.034H514.348V480.48H532.71Z"
                fill="white"
            />
            <path
                d="M525.787 478.633C520.292 478.633 515.85 482.125 515.85 486.513C515.85 490.812 520.292 494.297 525.787 494.297C531.28 494.297 535.7 490.812 535.7 486.513C535.7 482.125 531.282 478.633 525.787 478.633ZM525.787 491.953C523.39 491.953 521.47 489.473 521.47 486.513C521.47 483.422 523.39 480.977 525.787 480.977C528.172 480.977 530.055 483.422 530.055 486.513C530.055 489.473 528.172 491.953 525.787 491.953Z"
                fill="white"
            />
            <path
                d="M426.159 182.215C423.54 191.327 414.112 200.331 405.071 208.552C402.567 210.83 398.914 212.868 394.011 214.908C376.654 221.951 366.938 231.164 356.038 245.765C341.886 264.801 344.35 282.835 343.62 302.08C343.154 315.629 343.404 343.837 319.669 365.984C316.913 368.524 312.973 370.588 308.595 372.273C292.71 378.449 281.529 388.524 270.659 403.118C263.167 413.241 260.286 423.13 259.131 433.038H294.922C294.701 418.126 293.391 393.361 314.287 374.276C316.781 371.98 320.422 369.929 325.349 367.926C342.749 360.896 357.031 352.029 367.9 337.387C382.047 318.301 379.614 300.269 380.307 281.035C380.803 267.492 375.966 238.996 399.708 216.923C402.459 214.334 406.399 212.283 410.751 210.55C425.824 204.69 440.814 195.614 451.558 182.215H426.159Z"
                fill="#8FBBD0"
            />
            <path
                d="M478.715 182.215H472.388C472.388 182.215 442.47 199.351 431.911 213.544C417.742 232.575 420.204 250.662 419.528 269.884C419.062 283.377 419.248 311.569 395.559 333.739C392.779 336.311 388.826 338.355 384.439 340.089C367.123 347.115 357.354 356.297 346.519 370.923C332.379 390.007 334.812 408.033 334.119 427.285C334.059 429.202 334.059 431.12 334.119 433.037H369.754C370.764 424.218 370.4 415.345 370.764 406.288C371.272 392.668 366.256 363.992 390.166 342.092C392.659 339.813 396.331 337.763 401.21 335.755C418.614 328.663 432.91 319.821 443.756 305.155C457.925 286.093 455.48 268.067 456.185 248.808C456.729 234.339 449.471 203.512 478.715 182.215Z"
                fill="#8FBBD0"
            />
            <path
                d="M346.627 182.215C346.885 197.144 348.165 221.843 327.303 241C324.786 243.284 321.175 245.304 316.207 247.343C298.867 254.399 284.513 263.271 273.69 277.865C259.514 296.945 261.971 315.012 261.285 334.247C260.787 347.813 265.625 376.28 241.925 398.384C239.121 400.924 235.21 402.993 230.805 404.661C215.766 410.586 200.801 419.656 190.016 433.037H215.42C218.062 423.944 222.905 414.646 231.904 406.473C234.445 404.165 238.074 402.12 242.989 400.1C260.375 393.008 274.682 384.172 285.517 369.511C299.681 350.451 297.237 332.4 297.941 313.165C298.443 299.635 293.607 271.133 317.307 249.035C320.111 246.452 324.033 244.426 328.391 242.764C344.271 236.522 360.086 226.794 370.885 212.175C378.399 202.028 381.318 192.122 382.454 182.215H346.627Z"
                fill="white"
            />
            <path
                d="M419.834 182.215C417.234 191.327 412.396 200.6 403.362 208.834C400.882 211.087 397.229 213.174 392.282 215.194C374.926 222.25 360.589 231.164 349.743 245.765C335.621 264.801 338.013 282.835 337.354 302.08C336.887 315.629 341.683 344.136 317.989 366.246C315.19 368.824 311.245 370.862 306.843 372.53C291.006 378.808 275.209 388.524 264.369 403.118C256.842 413.241 254.014 423.13 252.842 433.038H288.614C288.381 418.126 287.066 393.361 307.974 374.276C310.467 371.98 314.085 369.929 319.023 367.926C336.422 360.896 350.741 352.029 361.593 337.387C375.727 318.301 373.294 300.269 373.999 281.035C374.507 267.492 369.677 238.996 393.371 216.923C396.151 214.334 400.043 212.283 404.457 210.55C419.529 204.69 434.5 195.614 445.25 182.215H419.834Z"
                fill="white"
            />
            <path
                d="M472.43 182.215C451.916 189.58 437.656 197.246 425.603 213.544C411.494 232.575 413.927 250.662 413.215 269.884C412.719 283.377 417.544 311.933 393.831 334.008C391.039 336.608 387.147 338.653 382.758 340.381C365.359 347.455 351.065 356.297 340.182 370.923C326.054 390.007 328.489 408.033 327.806 427.285C327.71 429.013 327.746 430.914 327.806 433.037H363.464C364.475 424.218 364.074 415.345 364.415 406.288C364.94 392.668 359.931 363.992 383.84 342.092C386.346 339.813 389.987 337.763 394.931 335.755C412.27 328.663 426.638 319.821 437.447 305.155C451.642 286.093 449.167 268.067 449.878 248.808C450.386 234.339 443.186 203.512 472.43 182.215Z"
                fill="white"
            />
        </svg>